/* XPM */
static char * ldauthor_xpm[] = {
"32 32 477 2",
"  	c None",
". 	c #E4E4E4",
"+ 	c #EEF1F4",
"@ 	c #E6ECF1",
"# 	c #FFFFFF",
"$ 	c #EAEAEA",
"% 	c #F5F8FA",
"& 	c #E5ECF1",
"* 	c #DEE5EC",
"= 	c #D6DEE8",
"- 	c #DDE4EC",
"; 	c #EFF0F0",
"> 	c #FAFCFC",
", 	c #EFF3F6",
"' 	c #E8EDF2",
") 	c #E4EAEF",
"! 	c #DDE5ED",
"~ 	c #D5DFE9",
"{ 	c #CAD5E3",
"] 	c #F3F5F8",
"^ 	c #F7F7F7",
"/ 	c #FCFDFE",
"( 	c #F7F9FA",
"_ 	c #F1F5F7",
": 	c #EDF2F6",
"< 	c #E8EEF3",
"[ 	c #E1E9F0",
"} 	c #DAE3ED",
"| 	c #D2DDE7",
"1 	c #C8D5E3",
"2 	c #C6D3E2",
"3 	c #FCFCFC",
"4 	c #FEFFFF",
"5 	c #FBFCFD",
"6 	c #F7F9FC",
"7 	c #F6F8FA",
"8 	c #F1F5F8",
"9 	c #EBF1F6",
"0 	c #E5EDF3",
"a 	c #DEE7EF",
"b 	c #D6E1EA",
"c 	c #CDDAE7",
"d 	c #C3D2E2",
"e 	c #B5C6DA",
"f 	c #DADFE7",
"g 	c #FCFCFD",
"h 	c #FAFCFD",
"i 	c #F9FBFC",
"j 	c #F7FAFB",
"k 	c #F3F7FA",
"l 	c #EEF3F8",
"m 	c #E8EFF5",
"n 	c #E1EAF2",
"o 	c #D9E4EE",
"p 	c #D0DDEA",
"q 	c #C7D6E5",
"r 	c #BCCDDF",
"s 	c #B0C3D9",
"t 	c #A6BAD1",
"u 	c #F1F0F0",
"v 	c #FCFEFF",
"w 	c #F6F9FC",
"x 	c #F7FAFC",
"y 	c #F7FAFA",
"z 	c #F6F9FB",
"A 	c #F3F8FA",
"B 	c #EFF5F9",
"C 	c #E9F1F7",
"D 	c #E3ECF4",
"E 	c #DCE6F1",
"F 	c #D3E0EC",
"G 	c #CAD8E7",
"H 	c #BED0E3",
"I 	c #B2C7DE",
"J 	c #A9BED5",
"K 	c #9BB2CE",
"L 	c #B0BBC9",
"M 	c #F6F6F7",
"N 	c #F7FBFD",
"O 	c #EFF6FA",
"P 	c #F2F7F9",
"Q 	c #F3F6F9",
"R 	c #F3F8FB",
"S 	c #F3F8F9",
"T 	c #F2F7FA",
"U 	c #F1F6FA",
"V 	c #EDF4F9",
"W 	c #E4EBF5",
"X 	c #DDE8F1",
"Y 	c #D5E1ED",
"Z 	c #CBDAEB",
"` 	c #BFD3EA",
" .	c #C7C5C1",
"..	c #C9B89D",
"+.	c #9CB4D1",
"@.	c #8DA5C3",
"#.	c #6685AF",
"$.	c #F5FAFF",
"%.	c #E9F1F9",
"&.	c #EAF2F8",
"*.	c #ECF2F8",
"=.	c #EDF4F8",
"-.	c #EEF3F9",
";.	c #EEF5F9",
">.	c #EFF5F8",
",.	c #EDF3F9",
"'.	c #E7F0F7",
").	c #E2ECF5",
"!.	c #DCE7F2",
"~.	c #D4E3F0",
"{.	c #CCDEF0",
"].	c #D4CEBF",
"^.	c #E1A858",
"/.	c #DCA457",
"(.	c #CBBEAB",
"_.	c #C6D1E0",
":.	c #9CB1CE",
"<.	c #959593",
"[.	c #DCAB69",
"}.	c #D3C1AA",
"|.	c #C3CFDF",
"1.	c #99ACBF",
"2.	c #D0D7DF",
"3.	c #E8F2FA",
"4.	c #E7F1F9",
"5.	c #E6F1F9",
"6.	c #E8F1F7",
"7.	c #E8F1F8",
"8.	c #E7F1F7",
"9.	c #E5EFF5",
"0.	c #E2EDF5",
"a.	c #DEEAF4",
"b.	c #DCE9F6",
"c.	c #D5E5F3",
"d.	c #C0BBB2",
"e.	c #C9944D",
"f.	c #BD9966",
"g.	c #CFCCC8",
"h.	c #EBEFF5",
"i.	c #EFF1F1",
"j.	c #F3D2A3",
"k.	c #FFC16A",
"l.	c #FFC46F",
"m.	c #FFC875",
"n.	c #B5A48C",
"o.	c #AEBCC9",
"p.	c #C3D8F1",
"q.	c #9DA9B7",
"r.	c #E5F1FC",
"s.	c #E1EEF8",
"t.	c #E1EDF6",
"u.	c #E1EDF7",
"v.	c #E0ECF6",
"w.	c #DFECF6",
"x.	c #DDEBF5",
"y.	c #DBE9F4",
"z.	c #D8E6F2",
"A.	c #D2E0EC",
"B.	c #8F969D",
"C.	c #49494A",
"D.	c #827B74",
"E.	c #D6D9DB",
"F.	c #F7F9FB",
"G.	c #E5E6E7",
"H.	c #ADA18B",
"I.	c #FFBF66",
"J.	c #FEC374",
"K.	c #FDC375",
"L.	c #FDC374",
"M.	c #FFC471",
"N.	c #A6A8A3",
"O.	c #C9E2FC",
"P.	c #9DB7D0",
"Q.	c #C4CFD9",
"R.	c #D9EAF7",
"S.	c #D8E8F6",
"T.	c #D8E8F5",
"U.	c #D7E7F4",
"V.	c #D6E6F3",
"W.	c #D4E5F3",
"X.	c #D2E3F0",
"Y.	c #D0E1F0",
"Z.	c #CFE2F2",
"`.	c #788189",
" +	c #4E4D4D",
".+	c #757575",
"++	c #878788",
"@+	c #9A9A9A",
"#+	c #6A6A6A",
"$+	c #1E1F20",
"%+	c #534B38",
"&+	c #FFC775",
"*+	c #FCC171",
"=+	c #FCC071",
"-+	c #FCC06F",
";+	c #FEC16E",
">+	c #B0BCBA",
",+	c #8B979F",
"'+	c #AEBCC7",
")+	c #ADD0F3",
"!+	c #8EA4B9",
"~+	c #D5E8F7",
"{+	c #CEE1F3",
"]+	c #CDE0F2",
"^+	c #CBDFF1",
"/+	c #CADEEE",
"(+	c #C8DCED",
"_+	c #C5DAEE",
":+	c #C2D8EC",
"<+	c #C2D9EF",
"[+	c #717C85",
"}+	c #363635",
"|+	c #383838",
"1+	c #363636",
"2+	c #3B3B3B",
"3+	c #2C2C2C",
"4+	c #252627",
"5+	c #574E3B",
"6+	c #FFC470",
"7+	c #F8BC6A",
"8+	c #E0A959",
"9+	c #B68F6A",
"0+	c #DFA557",
"a+	c #ADB9B5",
"b+	c #9FBFD4",
"c+	c #969898",
"d+	c #B3D7F9",
"e+	c #89B1D8",
"f+	c #B2C4D4",
"g+	c #C0D8EE",
"h+	c #C0D7ED",
"i+	c #BED4EC",
"j+	c #BAD4EB",
"k+	c #B9D2EA",
"l+	c #B7D1E8",
"m+	c #B0CAE3",
"n+	c #A6C0DF",
"o+	c #576779",
"p+	c #383736",
"q+	c #3A3A3A",
"r+	c #3C3C3C",
"s+	c #434343",
"t+	c #2F2F2F",
"u+	c #262627",
"v+	c #564B38",
"w+	c #DDA455",
"x+	c #A1846B",
"y+	c #736F92",
"z+	c #9B9FBF",
"A+	c #C4B9AA",
"B+	c #BBC5C9",
"C+	c #9BA8CA",
"D+	c #9290A9",
"E+	c #919495",
"F+	c #7E8B96",
"G+	c #88B9EC",
"H+	c #7798BA",
"I+	c #BFD7EE",
"J+	c #B0CBE8",
"K+	c #AFCBE5",
"L+	c #AEC9E3",
"M+	c #A8C4E1",
"N+	c #91AFD3",
"O+	c #6C95C5",
"P+	c #538CC6",
"Q+	c #455F77",
"R+	c #393736",
"S+	c #3D3D3D",
"T+	c #454545",
"U+	c #2E2E2E",
"V+	c #222222",
"W+	c #403E37",
"X+	c #76728C",
"Y+	c #A6A7BB",
"Z+	c #F3F4F1",
"`+	c #E5E4EE",
" @	c #B1AED0",
".@	c #958FC0",
"+@	c #A09AC5",
"@@	c #9A9EC0",
"#@	c #758694",
"$@	c #94BDE5",
"%@	c #669AD1",
"&@	c #9FB4C9",
"*@	c #9DBEDF",
"=@	c #9BBBDB",
"-@	c #7599C7",
";@	c #5783BB",
">@	c #4E84BE",
",@	c #5992C9",
"'@	c #64A2D6",
")@	c #4B677D",
"!@	c #3E3E3E",
"~@	c #484848",
"{@	c #5A5A5A",
"]@	c #848484",
"^@	c #CACAC9",
"/@	c #C1C1C0",
"(@	c #535351",
"_@	c #6E6C8A",
":@	c #9B98C5",
"<@	c #9C98C2",
"[@	c #9D99C4",
"}@	c #807D9A",
"|@	c #5D646D",
"1@	c #619BDA",
"2@	c #577FAE",
"3@	c #86A5CA",
"4@	c #4371B0",
"5@	c #4F80BB",
"6@	c #588DC5",
"7@	c #619ACE",
"8@	c #69A5D5",
"9@	c #72B2E0",
"0@	c #526E82",
"a@	c #3F3F3F",
"b@	c #4C4C4C",
"c@	c #282828",
"d@	c #393939",
"e@	c #343434",
"f@	c #333333",
"g@	c #2B2B2B",
"h@	c #71708E",
"i@	c #9794C1",
"j@	c #9693BE",
"k@	c #9794C0",
"l@	c #76728F",
"m@	c #6786B3",
"n@	c #0F499D",
"o@	c #8196B7",
"p@	c #4D82BD",
"q@	c #5E91C8",
"r@	c #659ED2",
"s@	c #6FA8D9",
"t@	c #76B5DF",
"u@	c #82C2E8",
"v@	c #587585",
"w@	c #363534",
"x@	c #404040",
"y@	c #4E4E4E",
"z@	c #272727",
"A@	c #353535",
"B@	c #242523",
"C@	c #6D6C8A",
"D@	c #928EBC",
"E@	c #8F8DB9",
"F@	c #918EBA",
"G@	c #726E8C",
"H@	c #444548",
"I@	c #326CBC",
"J@	c #396AA7",
"K@	c #92B6D8",
"L@	c #6BA1D2",
"M@	c #75ACDA",
"N@	c #7CB8E0",
"O@	c #86C2E6",
"P@	c #92CEEF",
"Q@	c #5E7987",
"R@	c #414141",
"S@	c #515151",
"T@	c #252523",
"U@	c #6A6887",
"V@	c #8B88B7",
"W@	c #8A85B4",
"X@	c #8A87B6",
"Y@	c #6C6889",
"Z@	c #718CAD",
"`@	c #3F7FC8",
" #	c #92ADC8",
".#	c #75AEDB",
"+#	c #83BCE1",
"@#	c #8CC5E6",
"##	c #94CDEB",
"$#	c #9ED8F4",
"%#	c #637D87",
"&#	c #535353",
"*#	c #373737",
"=#	c #242423",
"-#	c #666482",
";#	c #8582B1",
">#	c #837EAE",
",#	c #8380AF",
"'#	c #686383",
")#	c #302E2B",
"!#	c #6EA7E0",
"~#	c #6196C8",
"{#	c #ADCFE6",
"]#	c #90C6E7",
"^#	c #99CFEB",
"/#	c #A1D6EF",
"(#	c #A9E0F6",
"_#	c #657E88",
":#	c #565656",
"<#	c #242422",
"[#	c #615F80",
"}#	c #7F7BAB",
"|#	c #7B79A8",
"1#	c #7D79A9",
"2#	c #635E7F",
"3#	c #7B8C9B",
"4#	c #72B2E6",
"5#	c #A7C1D6",
"6#	c #9CD0EB",
"7#	c #A5D6EE",
"8#	c #A5D8EF",
"9#	c #9FD5ED",
"0#	c #5B737E",
"a#	c #353434",
"b#	c #262626",
"c#	c #232321",
"d#	c #5D5B7C",
"e#	c #7674A4",
"f#	c #7671A2",
"g#	c #7673A2",
"h#	c #5E587A",
"i#	c #A2CEEF",
"j#	c #87BADC",
"k#	c #BCDAE8",
"l#	c #9CCBE4",
"m#	c #8EBFD8",
"n#	c #80B4D1",
"o#	c #4C6571",
"p#	c #232323",
"q#	c #232322",
"r#	c #575777",
"s#	c #726D9F",
"t#	c #6E6C9B",
"u#	c #706C9C",
"v#	c #575376",
"w#	c #757B7F",
"x#	c #98D1F4",
"y#	c #ACC6D6",
"z#	c #7CAAC5",
"A#	c #72A0BC",
"B#	c #4F6879",
"C#	c #28292A",
"D#	c #555555",
"E#	c #222221",
"F#	c #545175",
"G#	c #6D699C",
"H#	c #696596",
"I#	c #696597",
"J#	c #554F72",
"K#	c #BBD6E3",
"L#	c #B2D5EC",
"M#	c #617583",
"N#	c #2D2D2D",
"O#	c #212121",
"P#	c #464646",
"Q#	c #504F72",
"R#	c #676396",
"S#	c #666292",
"T#	c #656093",
"U#	c #504B6E",
"V#	c #585858",
"W#	c #505050",
"X#	c #1F1F1F",
"Y#	c #313131",
"Z#	c #222220",
"`#	c #4E4C70",
" $	c #636094",
".$	c #625D90",
"+$	c #636093",
"@$	c #514B71",
"#$	c #545454",
"$$	c #323232",
"%$	c #4D4D4D",
"&$	c #1D1D1D",
"*$	c #4D4B71",
"=$	c #646096",
"-$	c #625E91",
";$	c #393754",
">$	c #424242",
",$	c #42405C",
"'$	c #28263B",
")$	c #101010",
"!$	c #1B1B1B",
"                                                                ",
"                                      . + @ #                   ",
"                                  $ % & * = - #                 ",
"                              ; > , ' ) ! ~ { ]                 ",
"                          ^ / ( _ : < [ } | 1 2                 ",
"                    . 3 4 5 6 7 8 9 0 a b c d e f               ",
"                $ 4 g h h i j k l m n o p q r s t               ",
"            u v w % x x y z A B C D E F G H I J K L             ",
"        M N O B P Q R S T U V C W X Y Z `  ...+.@.#.            ",
"      $.%.&.*.=.-.;.>.-.,.&.'.).!.~.{.].^./.(._.:.<.[.}.        ",
"  |.1.2.3.4.4.5.6.7.7.8.9.0.a.b.c.d.e.f.g.h.i.j.k.l.m.n.        ",
"  o.p.q.r.s.t.u.u.v.w.x.y.z.A.B.C.D.E.F.G.H.I.J.K.L.M.N.        ",
"    O.P.Q.R.S.T.U.V.W.X.Y.Z.`. +.+++@+#+$+%+&+*+=+-+;+>+,+      ",
"    '+)+!+~+{+]+^+/+(+_+:+<+[+}+|+1+2+3+4+5+6+7+8+9+0+a+b+c+    ",
"      d+e+f+g+h+i+j+k+l+m+n+o+p+q+r+s+t+u+v+w+x+y+z+A+B+C+D+E+  ",
"      F+G+H+I+J+K+L+M+N+O+P+Q+R+r+S+T+U+V+W+X+Y+Z+`+ @.@+@@@#@  ",
"        $@%@&@*@=@-@;@>@,@'@)@p+2+!@~@3+{@]@^@/@(@_@:@<@[@}@    ",
"        |@1@2@3@4@5@6@7@8@9@0@p+2+a@b@c@d@e@f@g@V+h@i@j@k@l@    ",
"          m@n@o@p@q@r@s@t@u@v@w@S+x@y@z@q+q+x@A@B@C@D@E@F@G@    ",
"          H@I@J@K@L@M@N@O@P@Q@w@r+R@S@z@q+2+s+1+T@U@V@W@X@Y@    ",
"            Z@`@ #.#+#@###$#%#w@r+R@&#z@q+2+T+*#=#-#;#>#,#'#    ",
"            )#!#~#{#]#^#/#(#_#w@S+x@:#z@d@2+~@|+<#[#}#|#1#2#    ",
"              3#4#5#6#7#8#9#0#a#r+a@:#b#|+q+~@|+c#d#e#f#g#h#    ",
"                i#j#k#l#m#n#o#a#d@!@:#p#*#d@~@|+q#r#s#t#u#v#    ",
"                w#x#y#z#A#B#C#A@*#r+D#p#A@*#~@1+E#F#G#H#I#J#    ",
"                  K#L#M#    N#f@A@q+&#O#f@A@P#|+c#Q#R#S#T#U#    ",
"                            V#t+A@|+W#X#Y#f@T+*#Z#`# $.$+$@$    ",
"                            #$U+$$1+%$&$t+Y#s+*#Z#*$=$-$;$      ",
"                              g@e@*#b@&$U+Y#>$A@<#,$'$          ",
"                                        )$!$U+V+                ",
"                                                                ",
"                                                                "};
